<?xml version="1.0" encoding="UTF-8"?><svg id="Layer_2" xmlns="http://www.w3.org/2000/svg" viewBox="0 0 135.93 27.73"><defs><style>.cls-1{stroke-width:0px;}</style></defs><g id="Layer_1-2"><g id="k1DvtH"><path class="cls-1" d="m58.71,20.25c0,1.3,0,2.6,0,3.9.01,1.22.38,1.69,1.45,2.09.11.04.23.09.33.16.27.2.34.5.2.76-.07.14-.35.25-.53.25-1.22-.05-2.43-.14-3.65-.2-.44-.02-.87-.02-1.31,0-1.15.06-2.3.14-3.44.21-.04,0-.08,0-.12,0-.3,0-.62-.05-.66-.41-.04-.35.2-.58.51-.71.14-.06.29-.09.43-.14.83-.28,1.12-.94,1.21-1.73.02-.19.02-.38.02-.57,0-6.02,0-12.03,0-18.05,0-.3-.05-.6-.1-.89-.12-.71-.62-1.05-1.25-1.26-.19-.06-.39-.15-.54-.28-.36-.31-.26-.74.19-.87.21-.06.43-.11.64-.09,2.75.29,5.5.13,8.25.1,1.01-.01,2.03-.07,3.04.04,2.21.25,4.05,1.21,5.09,3.25.6,1.18.76,2.48.49,3.83-.36,1.81-1.32,3.21-2.78,4.28-.41.3-.88.54-1.35.77-.44.22-.49.45-.08.74,1.41.98,2.29,2.35,2.96,3.88.61,1.38,1.18,2.78,1.76,4.18.47,1.15,1.16,2.12,2.26,2.76.3.18.63.43.51.84-.13.46-.56.35-.91.35-1.51,0-3.01-.08-4.52,0-1.09.05-1.76-.48-2.26-1.32-.7-1.17-1.08-2.46-1.5-3.74-.55-1.65-1.12-3.3-1.77-4.92-.28-.7-.74-1.34-1.42-1.75-.09-.06-.19-.11-.29-.14-.71-.19-.85-.09-.85.64,0,1.35,0,2.71,0,4.06h0Zm.03-10.71s-.02,0-.03,0c0,1.27,0,2.54,0,3.81,0,.36.11.53.49.52.48-.02.96,0,1.44-.01.28-.01.59-.03.84-.13,1-.41,1.51-1.26,1.86-2.22.34-.93.39-1.9.32-2.87-.08-1.14-.43-2.19-1.15-3.09-.66-.83-1.51-1.31-2.58-1.41-.45-.04-.83.17-.95.6-.12.42-.22.85-.23,1.28-.03,1.17-.01,2.35-.01,3.52Z"/><path class="cls-1" d="m7.69,20.24c0,1.29,0,2.57,0,3.86,0,1.25.37,1.75,1.48,2.15.11.04.28.08.31.17.1.23.21.5.18.74-.01.1-.34.26-.52.25-1.03-.02-2.05-.1-3.08-.13-.8-.02-1.61-.02-2.41,0-1.04.03-2.08.11-3.12.13-.19,0-.48-.16-.54-.31-.06-.16.08-.42.2-.6.08-.12.27-.16.41-.23.32-.17.74-.27.94-.53.27-.36.4-.85.54-1.29.06-.2.03-.43.03-.65,0-5.98,0-11.95,0-17.93,0-.35-.07-.7-.13-1.05-.11-.64-.59-.91-1.13-1.13-.08-.03-.16-.03-.24-.07C.32,3.48.01,3.29.03,2.92c.02-.4.39-.47.7-.5.32-.03.65.01.98.04,2.81.22,5.61.08,8.42.01,1.22-.03,2.44-.02,3.62.35,1.46.46,2.7,1.25,3.49,2.61.79,1.36,1.01,2.81.65,4.38-.53,2.33-1.97,3.86-4.06,4.86-.44.21-.5.46-.11.74,1.41.97,2.29,2.35,2.97,3.88.61,1.4,1.19,2.81,1.77,4.22.48,1.15,1.16,2.12,2.28,2.74.06.03.14.06.17.12.11.24.32.51.29.74-.05.34-.42.33-.71.32-1.67,0-3.34-.03-5.01-.02-.98,0-1.51-.61-1.95-1.34-.7-1.16-1.08-2.46-1.5-3.74-.54-1.64-1.12-3.27-1.76-4.88-.28-.7-.73-1.34-1.42-1.76-.1-.06-.21-.13-.33-.15-.7-.17-.83-.08-.83.64,0,1.35,0,2.71,0,4.06h0Zm.03-10.72s-.02,0-.03,0c0,1.28,0,2.57,0,3.85,0,.35.12.5.48.49.49-.02.99,0,1.48-.01.27-.01.56-.02.8-.12,1.01-.42,1.52-1.28,1.88-2.25.35-.94.38-1.93.3-2.91-.09-1.15-.45-2.21-1.2-3.11-.65-.78-1.48-1.23-2.5-1.33-.44-.04-.84.16-.96.59-.12.42-.23.85-.24,1.28-.03,1.17-.01,2.35-.01,3.52Z"/><path class="cls-1" d="m102.8,11.47c0,3.42,0,6.84,0,10.26,0,.47.11.95.2,1.41.08.41.36.64.72.83.31.16.77.22.73.71-.03.45-.44.56-.78.68-1.38.52-2.64,1.24-3.82,2.11-.42.31-.92.29-1.32-.04-.26-.22-.5-.47-.74-.71-.33-.33-.56-.34-.91-.02-.63.59-1.38.9-2.24.97-2.34.19-4.14-.75-5.49-2.62-.92-1.27-1.49-2.67-1.8-4.21-.2-.99-.28-1.98-.19-2.97.1-1.16.35-2.28.75-3.38.55-1.51,1.36-2.82,2.56-3.88,1.23-1.1,2.7-1.55,4.35-1.48.8.04,1.57.2,2.29.57.3.15.43.06.44-.28,0-1.12.01-2.24-.02-3.36-.02-.71-.46-1.17-1.03-1.52-.18-.11-.38-.18-.52-.32-.13-.13-.26-.35-.25-.51,0-.13.22-.31.38-.35.7-.19,1.41-.33,2.11-.5,1.18-.28,2.09-.95,2.83-1.9.25-.33.57-.63.91-.86.36-.24.75,0,.81.42.03.19.02.38.02.57,0,3.46,0,6.92,0,10.38Zm-5.18,7.93s-.03,0-.05,0c0-1.23-.02-2.46,0-3.69.04-1.49-.4-2.82-1.22-4.04-.33-.5-.76-.95-1.38-1.09-1.06-.23-1.87.25-2.39,1.32-.55,1.13-.74,2.34-.81,3.57-.1,1.99.16,3.94.76,5.85.29.92.65,1.79,1.23,2.56.65.86,1.45,1.43,2.63,1.22.89-.15,1.23-.53,1.23-1.41,0-1.44,0-2.87,0-4.31Z"/><path class="cls-1" d="m113.68,25.14c-.58.53-1.1,1.05-1.66,1.51-1.13.93-2.47,1.28-3.88.97-1.54-.33-2.59-1.3-3.08-2.85-.43-1.36-.32-2.71.11-4.03.47-1.41,1.53-2.29,2.87-2.85,1.25-.51,2.56-.77,3.89-.93.35-.04.71-.11,1.04-.23.14-.05.31-.26.31-.38-.05-1.53,0-3.07-.38-4.57-.11-.42-.31-.85-.56-1.21-.32-.45-.96-.39-1.16.13-.26.64-.44,1.32-.58,1.99-.2.98-.41,1.94-.91,2.82-.71,1.25-2.78,1.34-3.69-.07-.7-1.08-.71-2.19-.13-3.34.72-1.44,1.97-2.15,3.42-2.66,1.25-.43,2.53-.42,3.78-.2,1.71.31,3.16,1.16,4.18,2.65.62.9,1.06,1.89,1.17,2.97.13,1.27.19,2.56.22,3.84.04,1.65.02,3.31.05,4.96,0,.27.05.55.16.79.17.39.35.39.71.15.26-.18.55-.34.86-.4.16-.03.46.12.53.27.08.17.03.45-.07.63-.42.78-1,1.44-1.72,1.95-1.51,1.08-3.6.78-4.73-.77-.27-.37-.48-.78-.72-1.17Zm-.29-4.42s-.04,0-.06,0c0-.7,0-1.39,0-2.09,0-.44-.14-.56-.56-.43-.51.15-1.02.31-1.49.54-1.21.61-2.04,1.65-1.87,3.15.05.45.17.91.35,1.32.39.89,1.41,1.76,2.58,1.04.62-.39,1.13-.84,1.07-1.69-.05-.61,0-1.23,0-1.84Z"/><path class="cls-1" d="m80.37,25.16c-.72.62-1.34,1.26-2.07,1.75-1.97,1.34-4.73,1.03-6.11-1.09-.4-.62-.66-1.32-.7-2.07-.06-1-.03-2,.32-2.96.36-.98.95-1.76,1.84-2.33.96-.62,2.01-.96,3.11-1.18.94-.19,1.88-.36,2.82-.52.29-.05.39-.2.37-.48-.07-1.47,0-2.96-.38-4.4-.12-.46-.33-.92-.59-1.32-.26-.4-.8-.36-1.08.03-.14.2-.27.42-.33.65-.23.94-.4,1.89-.64,2.83-.19.74-.45,1.48-1.07,1.98-.87.7-2.44.58-3.2-.6-.7-1.08-.72-2.19-.14-3.34.73-1.45,1.99-2.17,3.45-2.68,1.25-.43,2.53-.41,3.77-.18,1.7.31,3.13,1.17,4.14,2.63.62.89,1.03,1.87,1.17,2.93.13.99.19,1.99.22,2.98.04,1.98.04,3.96.05,5.95,0,.14,0,.29.05.41.1.22.2.48.37.59.1.06.39-.1.54-.23.28-.24.57-.38.94-.29.37.09.56.43.38.75-.47.83-1.05,1.58-1.84,2.11-1.6,1.08-3.52.76-4.69-.78-.28-.36-.48-.78-.71-1.15Zm-.32-4.38s-.03,0-.04,0c0-.71,0-1.42,0-2.13,0-.47-.17-.6-.62-.46-.49.15-1,.3-1.45.54-1.15.6-1.9,1.48-1.89,2.86,0,.57.12,1.1.37,1.61.44.91,1.43,1.74,2.59,1.02.61-.38,1.11-.82,1.05-1.65-.05-.6,0-1.2,0-1.8Z"/><path class="cls-1" d="m44.1,22.6c.15-.32.31-.57.4-.85.44-1.38.6-2.8.68-4.23.09-1.63-.03-3.25-.24-4.87-.09-.73-.17-1.45.12-2.18.36-.89,1.39-1.73,2.39-1.74.89-.01,1.82.4,2.32,1.46.41.88.36,1.78.1,2.64-.38,1.25-.86,2.47-1.37,3.67-.48,1.13-1.05,2.22-1.57,3.32-.43.91-.85,1.82-1.28,2.74-.53,1.13-1.07,2.26-1.61,3.39-.13.28-.27.56-.41.85-.16.35-.44.57-.82.58-.53.02-1.07.03-1.6,0-.53-.02-.87-.29-1.07-.81-.52-1.36-1.09-2.7-1.62-4.06-.53-1.34-1.04-2.69-1.56-4.04-.43-1.1-.89-2.2-1.32-3.3-.32-.8-.65-1.59-.94-2.4-.35-.99-.98-1.71-1.92-2.18-.19-.1-.38-.27-.48-.46-.19-.37,0-.69.43-.71.38-.02.77.02,1.15.02,2.2,0,4.41-.01,6.61-.02.22,0,.45-.04.65,0,.18.04.45.14.48.27.05.19,0,.48-.13.63-.19.22-.46.37-.72.53-.51.32-.71.71-.53,1.28.5,1.55,1.02,3.1,1.56,4.64.4,1.14.84,2.27,1.27,3.4.27.71.55,1.42.84,2.13.03.07.09.13.19.27Z"/><path class="cls-1" d="m28.27,18.71c-1.27,0-2.55,0-3.82,0-.48,0-.57.09-.47.56.28,1.39.71,2.72,1.67,3.81,1.01,1.14,2.28,1.63,3.79,1.4.81-.13,1.43-.65,2.01-1.21.13-.12.27-.23.42-.32.27-.17.52-.1.74.12.22.2.27.42.13.7-.8,1.57-2.04,2.66-3.64,3.38-1.2.54-2.46.67-3.73.48-1.71-.25-3.14-1.06-4.25-2.41-.67-.8-1.18-1.69-1.55-2.67-.8-2.09-1.01-4.22-.52-6.4.55-2.45,1.68-4.55,3.81-5.99,1.54-1.04,3.29-1.28,5.07-.9,1.3.28,2.35,1.07,3.19,2.1.91,1.1,1.53,2.35,1.78,3.76.14.78.23,1.57.26,2.35.03.84-.4,1.22-1.23,1.22-1.22,0-2.44,0-3.66,0h0Zm-1.64-1.54s0-.07,0-.1c.79,0,1.59,0,2.38,0,.38,0,.54-.16.49-.52-.09-.66-.19-1.32-.3-1.98-.15-.87-.48-1.68-.95-2.42-.43-.68-1-1.15-1.89-1.02-.76.11-1.2.6-1.57,1.19-.82,1.32-.98,2.81-1.06,4.31-.02.39.21.53.57.52.78,0,1.56,0,2.34,0Z"/><path class="cls-1" d="m130.52,12.09c-.72.37-.98,1.01-1.37,1.54-.53.7-.64,1.48-.63,2.34.04,2.79.02,5.58.02,8.37,0,.59.14,1.12.62,1.49.25.19.59.27.87.44.17.1.35.23.45.39.24.38-.04.78-.55.77-1.07-.03-2.13-.09-3.2-.13-.54-.02-1.09-.02-1.64,0-1.08.03-2.16.1-3.24.13-.31,0-.67.04-.74-.4-.05-.31.21-.66.59-.77.94-.28,1.5-.86,1.5-1.89,0-.55.03-1.09.03-1.64,0-2.27,0-4.54,0-6.81,0-.5-.07-1.01-.12-1.51-.06-.58-.4-.96-.9-1.23-.24-.13-.49-.26-.68-.44-.26-.23-.21-.51.1-.66.24-.12.51-.23.77-.25,1.77-.18,3.3-.81,4.5-2.16.27-.3.58-.53,1.03-.51.41.02.59.15.6.56.02.49,0,.98.01,1.48,0,.18.06.35.09.57.53-.54.98-1.03,1.46-1.48.95-.89,2.07-1.31,3.38-1.1.93.15,1.59.67,2.04,1.48.47.86.53,1.78.27,2.7-.26.93-.88,1.59-1.83,1.81-.91.21-1.78.01-2.33-.81-.32-.48-.48-1.06-.72-1.59-.11-.24-.25-.46-.38-.7Z"/></g></g></svg>